<?xml version="1.0" encoding="UTF-8"?>
<svg id="_レイヤー_2" data-name="レイヤー 2" xmlns="http://www.w3.org/2000/svg" viewBox="0 0 133.95 118.93">
  <defs>
    <style>
      .cls-1 {
        fill: #9ba1a2;
      }
    </style>
  </defs>
  <g id="_レイヤー_1-2" data-name="レイヤー 1">
    <g>
      <path class="cls-1" d="m40.99,40.97h86.81c1.16,0,2.38.11,3.53,0,.05,0,.1,0,.15,0l-2.41-3.16c-.96,5.63-1.91,11.26-2.87,16.89-1.53,8.98-3.05,17.95-4.58,26.93-.35,2.06-.7,4.12-1.05,6.18l2.41-1.84H40.06c-1.12,0-2.3-.1-3.42,0-.05,0-.1,0-.15,0l2.41,3.16c1.66-6.15,1.91-12.9,1.69-19.22-.53-15.13-5.03-29.99-12.92-42.9C21.5,16.93,13.42,8.14,4.26.7,3.21-.15,1.75-.32.73.7-.15,1.58-.33,3.38.73,4.24c14.4,11.68,25.93,26.8,31.34,44.6,1.99,6.54,3.06,12.61,3.44,19.12.27,4.71.16,9.45-.4,14.14-.03.26-.07.53-.1.79-.03.28.09-.59-.01.08-.06.41-.12.83-.19,1.24-.11.65-.22,1.31-.35,1.96-.11.55-.22,1.09-.37,1.63-.42,1.57.78,3.16,2.41,3.16h75.81c3.5,0,7.04.14,10.54,0,.05,0,.1,0,.15,0,1.01,0,2.23-.77,2.41-1.84.96-5.63,1.91-11.26,2.87-16.89,1.53-8.98,3.05-17.95,4.58-26.93.35-2.06.7-4.12,1.05-6.18.27-1.57-.66-3.16-2.41-3.16H52.13c-3.65,0-7.33-.15-10.98,0-.05,0-.1,0-.15,0-3.22,0-3.22,5,0,5h0Z"/>
      <path class="cls-1" d="m66.99,105.97c-.08-5.48-3.45-10.28-8.57-12.21s-10.99-.28-14.35,3.83-4.1,10.26-1.25,15.02,8.33,7.07,13.71,6.1c6.07-1.09,10.38-6.7,10.46-12.74.04-3.22-4.96-3.22-5,0s-2.1,6.44-5.16,7.49c-3.38,1.16-6.86.25-9.14-2.54-1.99-2.44-2.25-6.24-.56-9.07s5.09-4.38,8.21-3.78c3.94.76,6.6,4.02,6.65,7.9.04,3.21,5.04,3.22,5,0Z"/>
      <path class="cls-1" d="m116.99,105.97c-.08-5.48-3.45-10.28-8.57-12.21s-10.99-.28-14.35,3.83-4.1,10.26-1.25,15.02,8.33,7.07,13.71,6.1c6.07-1.09,10.38-6.7,10.46-12.74.04-3.22-4.96-3.22-5,0s-2.1,6.44-5.16,7.49c-3.38,1.16-6.86.25-9.14-2.54-1.99-2.44-2.25-6.24-.56-9.07s5.09-4.38,8.21-3.78c3.94.76,6.6,4.02,6.65,7.9.04,3.21,5.04,3.22,5,0Z"/>
    </g>
  </g>
</svg>