<svg id="グループ_24" data-name="グループ 24" xmlns="http://www.w3.org/2000/svg" xmlns:xlink="http://www.w3.org/1999/xlink" width="51.229" height="45.485" viewBox="0 0 51.229 45.485">
  <defs>
    <clipPath id="clip-path">
      <rect id="長方形_26" data-name="長方形 26" width="51.229" height="45.485" fill="#fff"/>
    </clipPath>
  </defs>
  <g id="グループ_23" data-name="グループ 23" transform="translate(0 0)" clip-path="url(#clip-path)">
    <path id="パス_18" data-name="パス 18" d="M15.678,15.669h33.2c.443,0,.909.041,1.351,0,.019,0,.039,0,.059,0l-.922-1.21q-.549,3.231-1.1,6.461-.875,5.149-1.75,10.3l-.4,2.363.922-.7H15.322c-.429,0-.88-.039-1.308,0-.018,0-.038,0-.057,0l.922,1.21a25.3,25.3,0,0,0,.645-7.351,33.81,33.81,0,0,0-4.942-16.408A39.847,39.847,0,0,0,1.63.269a.985.985,0,0,0-1.352,0,.964.964,0,0,0,0,1.352A35.634,35.634,0,0,1,12.262,18.679a30.55,30.55,0,0,1,1.316,7.314,30.712,30.712,0,0,1-.151,5.408c-.012.1-.026.2-.038.3s.034-.226,0,.031c-.024.158-.047.316-.072.474-.041.25-.085.5-.135.748-.042.209-.085.419-.141.625a.966.966,0,0,0,.922,1.21H42.952c1.339,0,2.692.054,4.031,0h.057a.966.966,0,0,0,.922-.7q.549-3.231,1.1-6.461.875-5.149,1.75-10.3.2-1.182.4-2.363a.971.971,0,0,0-.922-1.21H19.936c-1.4,0-2.8-.057-4.2,0h-.059a.957.957,0,0,0,0,1.912" transform="translate(0 0)" fill="#fff"/>
    <path id="パス_19" data-name="パス 19" d="M50.958,97.946a5.049,5.049,0,0,0-3.278-4.672,4.978,4.978,0,0,0-5.489,1.467,4.969,4.969,0,1,0,8.767,3.2.957.957,0,0,0-1.912,0,3.058,3.058,0,1,1-2.544-3.02,3.09,3.09,0,0,1,2.544,3.02.957.957,0,0,0,1.912,0" transform="translate(-25.336 -57.417)" fill="#fff"/>
    <path id="パス_20" data-name="パス 20" d="M100.958,97.946a5.049,5.049,0,0,0-3.278-4.672,4.978,4.978,0,0,0-5.489,1.467,4.969,4.969,0,1,0,8.767,3.2.957.957,0,0,0-1.912,0,3.058,3.058,0,1,1-2.544-3.02,3.09,3.09,0,0,1,2.544,3.02.957.957,0,0,0,1.912,0" transform="translate(-56.214 -57.417)" fill="#fff"/>
  </g>
</svg>
