<svg id="グループ_22" data-name="グループ 22" xmlns="http://www.w3.org/2000/svg" xmlns:xlink="http://www.w3.org/1999/xlink" width="44.015" height="44.015" viewBox="0 0 44.015 44.015">
  <defs>
    <clipPath id="clip-path">
      <rect id="長方形_25" data-name="長方形 25" width="44.015" height="44.015" fill="none"/>
    </clipPath>
  </defs>
  <g id="グループ_20" data-name="グループ 20" clip-path="url(#clip-path)">
    <path id="パス_17" data-name="パス 17" d="M12.893.152A16.1,16.1,0,0,0,7.554,1.185,10.768,10.768,0,0,0,3.661,3.73a10.782,10.782,0,0,0-2.531,3.9A16.155,16.155,0,0,0,.117,12.977c-.1,2.348-.126,3.1-.115,9.072s.038,6.726.149,9.074a16.132,16.132,0,0,0,1.033,5.338,10.77,10.77,0,0,0,2.545,3.893,10.8,10.8,0,0,0,3.9,2.531A16.159,16.159,0,0,0,12.977,43.9c2.347.1,3.1.126,9.071.115s6.727-.038,9.074-.149a16.166,16.166,0,0,0,5.339-1.033,11.246,11.246,0,0,0,6.423-6.449A16.111,16.111,0,0,0,43.9,31.04c.1-2.349.127-3.1.115-9.074s-.039-6.725-.15-9.071a16.139,16.139,0,0,0-1.033-5.34,10.794,10.794,0,0,0-2.544-3.893,10.772,10.772,0,0,0-3.9-2.53A16.1,16.1,0,0,0,31.038.118c-2.347-.1-3.1-.127-9.074-.116S15.24.04,12.893.152m.257,39.784a12.206,12.206,0,0,1-4.087-.749,6.859,6.859,0,0,1-2.534-1.642,6.84,6.84,0,0,1-1.651-2.527,12.192,12.192,0,0,1-.765-4.086c-.109-2.32-.134-3.016-.145-8.892s.01-6.571.111-8.892a12.187,12.187,0,0,1,.749-4.087A6.83,6.83,0,0,1,6.469,6.528,6.819,6.819,0,0,1,9,4.878a12.183,12.183,0,0,1,4.084-.765C15.4,4,16.1,3.979,21.972,3.968s6.572.009,8.894.111a12.167,12.167,0,0,1,4.086.749,6.817,6.817,0,0,1,2.534,1.642A6.812,6.812,0,0,1,39.137,9a12.146,12.146,0,0,1,.764,4.083c.111,2.321.136,3.017.146,8.892s-.01,6.572-.112,8.893a12.2,12.2,0,0,1-.749,4.089,7.29,7.29,0,0,1-4.169,4.184,12.191,12.191,0,0,1-4.083.765c-2.321.109-3.016.134-8.893.145s-6.57-.011-8.891-.111M31.09,10.243A2.641,2.641,0,1,0,33.726,7.6a2.641,2.641,0,0,0-2.636,2.645M10.707,22.029A11.3,11.3,0,1,0,21.985,10.707,11.3,11.3,0,0,0,10.707,22.029m3.964-.008a7.336,7.336,0,1,1,7.349,7.322,7.336,7.336,0,0,1-7.349-7.322" transform="translate(0 0)" fill="#fff"/>
  </g>
</svg>
