<?xml version="1.0" encoding="UTF-8"?>
<svg id="_レイヤー_2" data-name="レイヤー 2" xmlns="http://www.w3.org/2000/svg" viewBox="0 0 611.3 129.88">
  <defs>
    <style>
      .cls-1 {
        fill: #fff;
      }

      .cls-2 {
        fill: #9ba1a2;
      }
    </style>
  </defs>
  <g id="_レイヤー_1-2" data-name="レイヤー 1">
    <g>
      <path class="cls-2" d="m45.84,27.79c0,4.52-3.94,11.63-5.48,11.63-2.98,0-5.38-1.44-5.48-2.31-.19-1.34,2.11-2.11,2.5-2.79,1.35-2.5,3.08-6.63,3.08-9.8s-2.5-6.34-3.56-7.02c-1.06-.67-1.54,0-2.02-.19-.48-.19,0-1.15-.77-1.15-14.22,0-28.64,18.64-28.64,26.62,0,10.57,7.11,16.34,14.7,21.53l6.34,4.33c13.17-7.11,27.87-13.26,36.13-13.26,1.35,0,2.21.58,2.21,2.11s-.67,2.59-1.73,2.79-10.96.19-13.17.48c-3.36.48-12.01,4.61-20.85,9.8,3.46,2.79,5.38,5.48,5.38,9.71s-12.2,11.34-12.97,11.53c-.77.19-.67-.58-1.06-.29-.38.29,0,0-.86.77-.86.77-5.96,2.88-8.94,2.88s-10.67-3.46-10.67-6.05c0-3.46,10.19-11.15,22.78-18.35C14.32,64.79,1.54,57.01,1.54,43.94c0-.48.29-.29.29-.77s0,.38-.1-.87c-.67-14.22,20.57-29.41,29.31-29.41,8.07,0,14.8,7.5,14.8,14.9Zm-20.28,44.97c-10.28,6.34-19.7,13.45-19.7,16.53,0,2.02,2.21,2.69,4.23,2.69,4.04,0,20.08-7.69,20.08-13.55,0-1.73-1.83-3.65-4.61-5.67Z"/>
      <path class="cls-2" d="m60.74,59.99c-.67,2.11-3.56,5.29-4.32,6.05-2.21,2.88-4.9,12.11-5.19,16.82-.1,1.73.77,1.83,3.17.86,4.71-1.83,14.7-10.76,17.97-17.97-.19-.96.38-2.5,1.44-2.69.67-.1,2.11,0,3.27.29.67.19,1.83,2.98,1.54,4.81-.1.38-1.06.58-1.54.96-.58,2.98-2.31,15.38,0,16.43,3.75,1.73,23.83-13.93,28.83-20.18.96.19.96,1.34,0,2.5-8.94,10.86-25.08,22.1-29.02,21.82-.67-.48-1.15-.1-1.73-.48-5.86-3.36-4.9-11.63-3.56-16.24.19-.67,0-.87-.48-.19-4.71,6.15-12.49,14.7-16.05,16.43-2.21,1.06-3.08,1.15-3.75.67s-1.54,1.25-3.27.67c-1.73-.58-3.46-2.69-2.4-6.73,0-5.38,6.63-21.43,8.94-29.12,4.04-2.21,6.63,3.84,6.15,5.29Z"/>
      <path class="cls-2" d="m111.38,52.68c.48.1,1.06,2.5.86,3.36-.19.87-.29,0-1.06.87-2.4,5.57-9.61,22.39-8.36,24.41,4.32-4.52,14.13-19.41,24.79-26.43.86-.58,1.83-.77,3.27-1.06,3.65-.77,4.71,4.04,2.21,9.8-.29.67-1.44.96-1.06,1.83-.86,3.94-3.94,10.76-3.75,15.86.1,2.21.86,3.08,2.88,2.21,7.4-3.27,19.03-13.84,25.27-20.85.58.19,1.54,1.63.86,2.4-7.3,8.94-18.93,19.22-25.75,22.49-5.67,2.69-9.03.38-9.23-3.56-.1-1.35.67-.87.58-1.83-1.06-4.04,4.42-14.51,5.67-21.81.19-1.35-.77-.96-2.11-.1-10.09,6.34-17.2,19.12-22.78,28.16-.58.96-5.38,1.54-5.67-.67-1.15-.58-1.44-4.42-.87-7.01,1.83-8.07,6.15-20.37,10.19-27.87,1.06-.29,3.27-.29,4.04-.19Z"/>
      <path class="cls-2" d="m181.92,43.75c2.88-7.69,5.67-14.32,6.92-17.59,2.11-4.52,3.75-9.71,5.57-9.71,2.12,0,2.88,1.25,2.79,3.36.48,0,1.25.67,0,3.94-1.83,4.71-6.44,14.99-13.17,23.16-2.11,6.25-5,15.57-6.05,25.37-1.35,12.11,2.98,16.05,10.19,12.69,6.25-2.88,12.4-10.48,12.4-10.96.38-.19.96-.29,1.35-.1.67.29,1.63,1.63.77,2.69-2.4,2.79-7.79,8.07-13.36,11.34-8.17,4.81-16.05,1.63-15.38-13.45.29-5.86,2.21-13.55,4.61-21.05-2.4,3.17-4.9,6.25-7.5,9.32.77,1.54.96,3.08.77,4.42-.1.67.58-.48.67,1.15.19,3.84-3.56,5.96-5.48,5.19-.96-.38-1.15-1.25-1.25-2.31.48-1.15.86-2.4.96-3.56-3.56,4.13-7.21,8.07-10.67,11.63-1.83,3.56-4.9,5.96-7.98,7.3-7.88,3.36-9.03-5.29-6.44-11.15,5.96-13.26,15.09-17.97,19.99-17.97,3.27,0,5.77,1.15,7.5,2.69,5.19-6.05,9.51-11.63,12.78-16.43Zm-15.66,19.8c-.77-1.54-2.11-2.5-3.94-2.5-6.63,0-14.03,10.28-15.95,14.32-4.23,9.9.87,7.88,7.78.96,4.32-4.32,8.46-8.65,12.11-12.78Z"/>
      <path class="cls-2" d="m222.57,59.12c1.15-1.92,2.31-3.75,3.36-5.67,1.73-1.25,5.19.77,5.86,1.44.67.67.58,2.02.1,2.98-.86,1.73-2.59,4.9-3.65,5.19-1.92,4.13-3.08,8.17-3.56,11.15-1.25,7.59.48,9.42,6.34,6.34,6.44-3.36,18.64-12.69,23.93-19.22,2.5.1,2.5,2.31.48,4.23-5.77,5.57-20.28,17.78-27.68,21.05-3.27,1.44-9.8,1.63-9.13-7.88.29-3.84,1.73-8.07,2.79-11.72.19-.67-.19-.87-.48-.29-.48.87-8.17,12.3-13.17,17.78-4.71,5.19-12.3,3.17-11.44-5.77,1.44-14.8,10.57-23.83,15.95-23.83,2.59,0,5.86.67,7.98,1.83,1.25.77,2.11,1.54,2.31,2.4Zm-1.73,2.79h-.58c-1.54,0-2.98-2.79-7.3-2.79-1.15,0-2.88.77-4.04,1.92-3.94,3.94-6.63,10.47-7.3,17.49-.48,5,.67,5.29,2.69,3.75,3.84-2.88,10.67-11.34,16.53-20.37Z"/>
      <path class="cls-2" d="m255.73,54.22c1.06.19,3.08,1.15,2.11,2.88-2.79,5.29-8.65,14.42-10.19,23.26-.58,3.17.67,2.5,1.73,1.35,1.06-1.35,17.2-19.99,20.85-19.99,3.94,0,6.25,10.96,5.38,22.2,1.92-1.35,3.84-2.11,5.57-2.21,2.4,0,4.42,1.92,4.71,4.42.29,1.73-.67,3.27-1.83,3.65s-1.92-.48-3.75-1.54c-1.44.1-3.46,1.15-5.67,2.88-2.31,11.72-8.07,28.45-13.36,33.44-1.63,1.63-3.84-.87-4.32-3.36-1.83-8.75,5.77-24.6,14.03-33.35.87-6.73.77-13.26-.38-18.74-.38-1.63-1.25-2.31-3.17-.96-10.86,7.59-16.43,22.97-21.81,23.64-2.12.29-4.23-2.02-4.13-4.52,0-.67.48-1.44.58-2.21.77-8.94,5.48-19.99,10.38-29.98.48-.96,2.21-1.06,3.27-.86Zm13.84,41.8c-4.42,5.19-8.46,12.49-8.65,20.18-.1,1.83.38,2.11,1.25.48,3.27-6.15,5.77-13.36,7.4-20.66Z"/>
      <path class="cls-2" d="m365.96,76.04c3.75-20.28,7.69-41.23,10.86-50.55.67-2.02.19-3.27.96-5.09,3.56-8.46,3.94-12.11,7.02-12.11,2.11,0,8.55,3.17,8.46,7.21-.19,7.78,1.73,23.26.67,28.54-1.06,5.48-3.17,3.08-4.9,2.69.48-13.93.29-27.2-1.83-28.64-3.36,2.59-7.3,8.26-10.09,19.99-2.11,8.65-4.8,23.16-7.5,37.86,11.82-.48,21.05-3.84,28.45-8.94,2.79-22.97,16.91-41.61,19.32-44.78,5.19-6.92,10.57-3.08,9.8.58-2.69,13.17-8.84,32.29-24.79,44.88v.38c-.87,12.49,1.63,17.49,7.21,17.49,6.53,0,13.55-6.05,16.53-9.71.77-.87,1.25,1.06,1.25,2.02,0,3.94-12.21,11.82-19.89,11.82-6.05,0-9.9-6.15-9.9-14.7,0-1.34,0-2.69.1-3.94-7.5,4.8-17.01,8.26-28.83,9.32-4.13,23.16-8.07,45.65-9.32,46.22-2.31.38-2.88,1.73-4.42,1.73-6.82,0-19.8-19.51-20.95-27.77-1.06-5.09,3.94-12.4,7.21-12.88,1.35-.19,2.69,1.54,2.59,1.73-.29,1.15-5.19,3.84-4.32,9.51,1.25,7.88,9.51,19.51,11.05,20.95,3.17,2.88,5.48,4.42,7.02-.19.19-.58-.29-.1-.19-.58,2.02-7.4,4.71-22.49,7.69-38.44-2.21.1-4.52.19-6.82.1-2.5,0-3.65-1.73-3.65-3.17s.67-2.4,2.02-2.21c3.27.38,6.34.58,9.23.67Zm37-12.88c10.86-9.9,16.43-23.64,19.32-35.56.48-2.11-.38-2.98-1.06-2.98s-3.08,2.4-5.29,5.77c-2.02,3.08-10.47,17.2-12.97,32.77Z"/>
      <path class="cls-2" d="m453.79,59.99c0,1.63-2.69,3.08-7.78,2.59-.96,0-10.47,10.47-10.47,15.95s2.5,7.69,5,7.69c7.5,0,14.8-12.69,14.8-22.68,0-3.46-2.98-7.21-2.98-8.26s1.06-1.63,2.5-1.63c5.67,0,8.17,4.04,8.17,7.69,0,1.54-1.54.86-1.63,1.73-1.35,10.09-10.67,26.91-22.39,26.91-4.42,0-8.65-6.05-8.65-10.76,0-15.18,12.2-23.64,16.05-23.64s7.4,2.79,7.4,4.42Z"/>
      <path class="cls-2" d="m478.68,62.29c-.29-2.88,1.44-10.86,4.71-10.86.58,0,2.31,1.44,3.27,4.23.58.29.87.48.19,2.11s-3.17,5.57-3.36,9.71c0,.67-.77-.19-.87.58-1.54,5.09-2.21,9.9-2.5,14.9-.1,1.44.77.96,1.34.29,4.42-5.38,10.28-14.22,14.22-23.54-.19-1.73.87-2.4,1.83-2.4s2.69,1.06,2.88,2.4c.58.38,1.54,1.15,1.44,1.35-.1.19-.86,1.54-.67,2.88.58,4.61,2.5,13.93,6.34,17.3,1.25,1.15,2.02,1.73,3.08-.38,4.23-8.55,3.27-19.12,2.88-27.58.1-.67.58-1.44,1.44-1.44s3.27.77,3.36,2.98c.19,7.88-.48,21.53-4.61,29.41-1.63.96-1.92,2.98-4.32,2.4-5.09-1.25-9.61-10.19-11.34-18.16-.38-1.92-1.06-1.44-1.73-.38-3.17,5-9.99,16.82-13.45,21.91-.58.86-2.02-.58-2.88-.38-2.21,1.44-3.27-.87-3.46-2.11-.96-5.38.48-16.05,3.27-23.54-.38-.58-.96-.67-1.06-1.63Z"/>
      <path class="cls-2" d="m575.84,65.56c-5,5.96-20.66,21.62-35.75,22.78-9.03,3.08-11.05-6.05-10.67-10.76.77-9.61,8.26-19.6,17.2-25.37,1.54-.96,2.11-.19,2.59.1.48.29.77-.58,1.54-.58,1.92,0,5.09,5.38,5.29,8.65.1,1.73-.67,2.88-1.54,3.65-.19.19.1,1.15-.58,1.92-3.36,4.13-9.51,9.32-18.84,14.42.58,5,4.32,4.9,11.82,2.4,8.26-2.69,19.03-9.51,27.58-19.03.77-.1,2.79.1,1.34,1.83Zm-40.75,10.76c6.05-2.88,16.91-10.96,17.11-16.91,0-.96-2.79-2.59-3.56-2.59-4.42,0-12.3,9.71-13.55,19.51Z"/>
      <path class="cls-2" d="m579.97,53.16c0-.67,1.54-1.44,2.5-1.44s3.94,1.54,4.42,2.59c.96,2.11-3.08,10.67-5,17.01-.29.96.29,1.06.77.38,3.46-4.13,18.64-16.82,23.26-16.82,1.83,0,5.38,3.84,5.38,6.63s-2.31,4.32-4.42,3.94c-1.54-.29-2.31-3.94-3.56-4.13-5.86.77-16.72,10.57-22.87,17.59-.96,1.83-2.21,6.92-3.46,8.75-1.25-.19-2.21,1.15-2.79,1.06-.58-.1-2.88-1.92-2.31-3.36,3.08-7.21,8.36-20.57,8.94-30.17-.48-.1-.87-1.35-.87-2.02Z"/>
    </g>
    <g>
      <path class="cls-2" d="m292.48,129.45c3.32-.48,6.58-1.42,9.56-2.98,2.8-1.47,5.45-3.19,7.68-5.44,4.64-4.68,7.33-10.92,9.09-17.18,1.03-3.67,1.77-7.42,2.35-11.18.67-4.36,1.18-8.76,1.46-13.15.58-9.04-.01-18.22-2.15-27.04-1.33-5.49-3.19-11.19-6.38-15.9-.25-.37-.51-.73-.79-1.08-.06-.08-1.48.93-1.52.88,1.29,1.64,2.3,3.5,3.19,5.39,1.27,2.68,2.28,5.49,3.11,8.34,2.33,7.96,3.28,16.31,3.22,24.59-.03,4.66-.44,9.3-.99,13.93-.46,3.83-1.04,7.64-1.85,11.41-1.39,6.45-3.47,12.98-7.34,18.41-1.71,2.41-3.78,4.55-6.19,6.27-.32.23-.65.45-.99.67-.14.09-.4.19-.5.31.02-.03.82-.45.31-.19-.1.05-.2.11-.31.16-.72.38-1.46.71-2.22,1.02-1.52.62-3.1,1.09-4.71,1.44-.83.18-1.67.33-2.52.45-.24.03-.56.31-.77.43s-.52.41-.76.45h0Z"/>
      <path class="cls-2" d="m317.23,11.6c0-2.28-.25-4.58-.92-6.77-.44-1.41-1.09-3.07-2.34-3.96-1.19-.85-2.21-.21-3.31.43-1.32.77-2.09,1.86-2.67,3.28-2.76,6.81-.66,14.36,1.3,21.08.59,2.01,1.21,4.02,1.89,6-.04-.12,1.46-.69,1.52-.88,1.62-4.67,3.05-9.47,3.96-14.33.3-1.6.55-3.22.56-4.85,0,.06-.69.39-.77.43-.09.05-.76.35-.76.45-.01,3.1-.78,6.22-1.54,9.2-.71,2.79-1.53,5.56-2.43,8.3-.18.56-.37,1.12-.56,1.68l1.52-.88c-1.56-4.48-2.91-9.08-3.85-13.73-.69-3.44-.91-6.82-.23-10.29.33-1.68.83-3.46,1.84-4.87.18-.25.37-.49.59-.7.09-.09.2-.16.29-.25.32-.3-1.03.57-1,.56.08-.01.15-.07.22-.09.49-.12.95-.13,1.42.09,1.42.64,2.17,2.42,2.64,3.8.78,2.3,1.05,4.76,1.06,7.18,0-.06.69-.39.77-.43.09-.05.76-.35.76-.45Z"/>
      <path class="cls-2" d="m299.64,15.2c-1.61-1.62-3.41-3.09-5.44-4.16-1.29-.67-2.9-1.37-4.39-1.08-.71.13-1.33.59-1.94.95-.47.28-.88.55-1.12,1.06-.6,1.25-.1,2.86.4,4.06,2.78,6.75,9.51,10.59,15.58,13.94,1.84,1.01,3.69,2,5.58,2.91.12.06,1.5-.92,1.52-.88-2.11-4.46-4.46-8.87-7.2-12.97-.9-1.34-1.86-2.67-2.99-3.83-.11-.11-1.43.97-1.52.88,2.16,2.21,3.79,4.96,5.34,7.61,1.45,2.49,2.8,5.03,4.08,7.61.26.53.52,1.05.77,1.59l1.52-.88c-4.25-2.07-8.45-4.36-12.37-7-2.87-1.93-5.36-4.16-7.28-7.07-.95-1.43-1.82-3.05-2.1-4.77-.09-.56-.11-1.16.05-1.72.07-.25.18-.49.33-.69.07-.09.14-.16.22-.25.04-.05.11-.08.14-.12.21-.16.03-.06-.52.29-.59.31-.75.4-.46.28,1.55-.38,3.03.08,4.44.76,2.19,1.07,4.12,2.64,5.83,4.35.11.12,1.42-.98,1.52-.88Z"/>
      <path class="cls-2" d="m289.71,30.35c-3.94.02-7.81.83-11.06,3.16-.92.66-1.77,1.7-1.39,2.91.41,1.29,1.83,2.07,2.98,2.57,6.69,2.89,14.22.75,20.83-1.22,2.03-.61,4.05-1.25,6.05-1.96.26-.09.52-.29.77-.43.11-.06.64-.49.76-.45-4.61-1.64-9.35-3.09-14.16-4.02-1.57-.3-3.17-.56-4.78-.57-.2,0-.59.33-.77.43s-.56.45-.76.45c3.05.01,6.12.79,9.05,1.55,2.77.72,5.52,1.56,8.24,2.47.55.18,1.1.37,1.65.57l1.52-.88c-4.42,1.57-8.96,2.95-13.56,3.9-3.36.69-6.67.92-10.06.25-1.66-.33-3.4-.83-4.8-1.81-.87-.61-1.73-1.56-1.5-2.71.12-.61.51-1.12.96-1.53.14-.13.29-.24.44-.36.07-.05.14-.09.21-.14.53-.38-1.23.65-.62.35.48-.23.96-.43,1.47-.61,2.24-.77,4.65-1.04,7.01-1.05.2,0,.59-.33.77-.43s.55-.45.76-.45Z"/>
      <path class="cls-2" d="m291.74,49.05c-1.59,1.62-3.03,3.42-4.07,5.45-.68,1.32-1.38,2.96-1.11,4.48.58,3.32,5.02,1.35,6.76.37,3.32-1.86,6.21-4.16,8.45-7.26,1.97-2.73,3.64-5.68,5.23-8.64.99-1.84,1.95-3.71,2.85-5.6h-.03c-4.82,2.36-9.61,4.98-14.04,8-1.42.96-2.82,1.99-4.04,3.2.4-.4,1.12-.48,1.52-.88,1.53-1.53,3.35-2.78,5.16-3.95,1.91-1.23,3.87-2.35,5.88-3.43,1.24-.67,2.5-1.32,3.76-1.94.03-.01.25-.15.27-.13,0,0-.04.04-.06.11-.1.38-.38.79-.55,1.13-1.84,3.72-3.8,7.41-6.06,10.9-1.18,1.83-2.45,3.63-4.03,5.15-.59.56-1.2,1.1-1.83,1.61-.33.26-.66.51-1,.75-.16.11-.31.22-.47.32-.28.19-1.05.5,0,.04-1.13.49-2.18,1.06-3.43,1.19-.87.09-1.84-.06-2.41-.79s-.54-1.82-.36-2.71c.64-3.16,2.92-6,5.11-8.24-.39.4-1.12.47-1.52.88Z"/>
      <path class="cls-2" d="m306.7,59.11c0,2.28.25,4.58.92,6.77.44,1.41,1.09,3.07,2.34,3.96,1.19.85,2.21.21,3.31-.43,1.32-.77,2.09-1.86,2.67-3.28,2.76-6.81.66-14.36-1.3-21.08-.59-2.01-1.21-4.02-1.89-6,.04.12-1.46.69-1.52.88-1.62,4.67-3.05,9.47-3.96,14.33-.3,1.6-.55,3.22-.56,4.85,0-.06.69-.39.77-.43.09-.05.76-.35.76-.45.01-3.1.78-6.22,1.54-9.2.71-2.79,1.53-5.56,2.43-8.3.18-.56.37-1.12.56-1.68l-1.52.88c1.56,4.48,2.91,9.08,3.85,13.73.69,3.44.91,6.82.23,10.29-.33,1.68-.83,3.46-1.84,4.87-.18.25-.37.49-.59.7-.09.09-.2.16-.29.25-.32.3,1.03-.57,1-.56-.08.01-.15.07-.22.09-.49.12-.95.13-1.42-.09-1.42-.64-2.17-2.42-2.64-3.8-.78-2.3-1.05-4.76-1.06-7.18,0,.06-.69.39-.77.43-.09.05-.76.35-.76.45Z"/>
      <path class="cls-2" d="m324.29,55.5c1.61,1.62,3.41,3.09,5.44,4.16,1.29.67,2.9,1.37,4.39,1.08.71-.13,1.33-.59,1.94-.95.47-.28.88-.55,1.12-1.06.6-1.25.1-2.86-.4-4.06-2.78-6.75-9.51-10.59-15.58-13.94-1.84-1.01-3.69-2-5.58-2.91-.12-.06-1.5.92-1.52.88,2.11,4.46,4.46,8.87,7.2,12.97.9,1.34,1.86,2.67,2.99,3.83.11.11,1.43-.97,1.52-.88-2.16-2.21-3.79-4.96-5.34-7.61-1.45-2.49-2.8-5.03-4.08-7.61-.26-.53-.52-1.05-.77-1.59l-1.52.88c4.25,2.07,8.45,4.36,12.37,7,2.87,1.93,5.36,4.16,7.28,7.07.95,1.43,1.82,3.05,2.1,4.77.09.56.11,1.16-.05,1.72-.07.25-.18.49-.33.69-.07.09-.14.16-.22.25-.04.05-.11.08-.14.12-.21.16-.03.06.52-.29.59-.31.75-.4.46-.28-1.55.38-3.03-.08-4.44-.76-2.19-1.07-4.12-2.64-5.83-4.35-.11-.12-1.42.98-1.52.88Z"/>
      <path class="cls-2" d="m334.22,40.36c3.94-.02,7.81-.83,11.06-3.16.92-.66,1.77-1.7,1.39-2.91-.41-1.29-1.83-2.07-2.98-2.57-6.69-2.89-14.22-.75-20.83,1.22-2.03.61-4.05,1.25-6.05,1.96-.26.09-.52.29-.77.43-.11.06-.64.49-.76.45,4.61,1.64,9.35,3.09,14.16,4.02,1.57.3,3.17.56,4.78.57.2,0,.59-.33.77-.43s.56-.45.76-.45c-3.05-.01-6.12-.79-9.05-1.55-2.77-.72-5.52-1.56-8.24-2.47-.55-.18-1.1-.37-1.65-.57l-1.52.88c4.42-1.57,8.96-2.95,13.56-3.9,3.36-.69,6.67-.92,10.06-.25,1.66.33,3.4.83,4.8,1.81.87.61,1.73,1.56,1.5,2.71-.12.61-.51,1.12-.96,1.53-.14.13-.29.24-.44.36-.07.05-.14.09-.21.14-.53.38,1.23-.65.62-.35-.48.23-.96.43-1.47.61-2.24.77-4.65,1.04-7.01,1.05-.2,0-.59.33-.77.43s-.55.45-.76.45Z"/>
      <path class="cls-2" d="m332.18,21.66c1.59-1.62,3.03-3.42,4.07-5.45.68-1.32,1.38-2.96,1.11-4.48-.58-3.32-5.02-1.35-6.76-.37-3.32,1.86-6.21,4.16-8.45,7.26-1.97,2.73-3.64,5.68-5.23,8.64-.99,1.84-1.95,3.71-2.85,5.6h.03c4.82-2.36,9.61-4.98,14.04-8,1.42-.96,2.82-1.99,4.04-3.2-.4.4-1.12.48-1.52.88-1.53,1.53-3.35,2.78-5.16,3.95-1.91,1.23-3.87,2.35-5.88,3.43-1.24.67-2.5,1.32-3.76,1.94-.03.01-.25.15-.27.13,0,0,.04-.04.06-.11.1-.38.38-.79.55-1.13,1.84-3.72,3.8-7.41,6.06-10.9,1.18-1.83,2.45-3.63,4.03-5.15.59-.56,1.2-1.1,1.83-1.61.33-.26.66-.51,1-.75.16-.11.31-.22.47-.32.28-.19,1.05-.5,0-.04,1.13-.49,2.18-1.06,3.43-1.19.87-.09,1.84.06,2.41.79s.54,1.82.36,2.71c-.64,3.16-2.92,6-5.11,8.24.39-.4,1.12-.47,1.52-.88Z"/>
      <g>
        <path class="cls-1" d="m314.23,35.35c0-1.27-1.02-2.3-2.27-2.3-1.25,0-2.27,1.03-2.27,2.3s1.02,2.3,2.27,2.3,2.27-1.03,2.27-2.3Z"/>
        <path class="cls-2" d="m314.99,34.92c-.01-1.04-.72-1.99-1.74-2.24-.5-.12-1.04-.06-1.5.16-.53.25-1.04.58-1.54.88-.23.14-.46.29-.64.49-.72.77-.82,1.98-.24,2.86s1.72,1.25,2.7.87c.53-.2,1.01-.54,1.5-.83.3-.17.59-.34.84-.59.42-.43.64-1.01.64-1.6,0,0-.26.14-.23.12-.18.1-.36.2-.54.31s-.36.21-.54.31c-.03.02-.22.11-.22.13,0,.46-.13.9-.38,1.28-.12.18-.27.35-.43.49-.04.03-.08.06-.12.09-.45.33-.68.12,1.16-.66-.12.05-.24.1-.36.14-.88.25-1.83-.07-2.39-.79s-.64-1.75-.2-2.55c.11-.19.24-.37.4-.52.07-.07.15-.13.22-.19l.05-.04c.47-.32.08-.09-1.19.68.06-.03.13-.06.19-.08.43-.16.9-.18,1.34-.07,1.02.26,1.7,1.2,1.71,2.23,0,0,.26-.14.23-.12.18-.1.36-.2.54-.31s.36-.21.54-.31c.03-.02.22-.11.22-.13Z"/>
      </g>
    </g>
  </g>
</svg>