<?xml version="1.0" encoding="utf-8"?>
<!-- Generator: Adobe Illustrator 27.5.0, SVG Export Plug-In . SVG Version: 6.00 Build 0)  -->
<svg version="1.1" id="レイヤー_1" xmlns="http://www.w3.org/2000/svg" xmlns:xlink="http://www.w3.org/1999/xlink" x="0px"
	 y="0px" viewBox="0 0 130 29.4" style="enable-background:new 0 0 130 29.4;" xml:space="preserve">
<style type="text/css">
	.st0{clip-path:url(#SVGID_00000018950677059207428650000003830484314260109454_);}
	.st1{fill:#FFFFFF;}
	.st2{enable-background:new    ;}
</style>
<g id="グループ_17" transform="translate(0 0)">
	<g>
		<defs>
			<rect id="SVGID_1_" width="130" height="29.4"/>
		</defs>
		<clipPath id="SVGID_00000087394698784805123870000004899308470252959881_">
			<use xlink:href="#SVGID_1_"  style="overflow:visible;"/>
		</clipPath>
		
			<g id="グループ_14" transform="translate(0 0)" style="clip-path:url(#SVGID_00000087394698784805123870000004899308470252959881_);">
			<path id="パス_1" class="st1" d="M11.1,5.8c0,0.9-0.8,2.4-1.2,2.4C9.3,8.3,8.8,8,8.8,7.8c0-0.3,0.4-0.4,0.5-0.6
				C9.7,6.6,9.9,5.9,10,5.2c0-0.6-0.3-1.1-0.7-1.5c-0.2-0.1-0.3,0-0.4,0s0-0.2-0.2-0.2c-3,0-6,3.9-6,5.6c0,2.2,1.5,3.4,3.1,4.5
				l1.3,0.9c2.8-1.5,5.9-2.8,7.6-2.8c0.3,0,0.5,0.1,0.5,0.4s-0.1,0.5-0.4,0.6s-2.3,0-2.8,0.1c-1.5,0.5-3,1.2-4.4,2.1
				c0.7,0.4,1.1,1.2,1.1,2c0,0.9-2.6,2.4-2.7,2.4s-0.1-0.1-0.2-0.1c-0.1,0.1-0.1,0.1-0.2,0.2C5,19.7,4.4,19.9,3.7,20
				c-0.6,0-2.2-0.7-2.2-1.3c0-0.7,2.1-2.3,4.8-3.9C4.5,13.6,1.8,12,1.8,9.2c0-0.1,0.1-0.1,0.1-0.2s0,0.1,0-0.2
				C1.7,5.9,6.2,2.7,8,2.7C9.7,2.8,11.1,4.1,11.1,5.8z M6.8,15.3c-2.2,1.3-4.1,2.8-4.1,3.5c0,0.4,0.5,0.6,0.9,0.6
				c0.8,0,4.2-1.6,4.2-2.8C7.8,16.1,7.4,15.7,6.8,15.3z"/>
			<g class="st2">
				<path class="st1" d="M14,11.7c-0.1,0.4-0.7,1-0.9,1.2c-0.4,0.6-1,2.4-1,3.3c0,0.3,0.2,0.4,0.6,0.2c0.9-0.4,2.9-2.1,3.6-3.6
					c0-0.2,0.1-0.5,0.3-0.5c0.1,0,0.4,0,0.6,0.1c0.1,0,0.4,0.6,0.3,0.9c0,0.1-0.2,0.1-0.3,0.2c-0.1,0.6-0.5,3,0,3.2
					c0.7,0.3,4.7-2.8,5.7-4c0.2,0,0.2,0.3,0,0.5c-1.8,2.1-5,4.4-5.7,4.3c-0.1-0.1-0.2,0-0.3-0.1c-1.2-0.7-1-2.3-0.7-3.2
					c0-0.1,0-0.2-0.1,0c-0.9,1.2-2.5,2.9-3.2,3.2c-0.4,0.2-0.6,0.2-0.7,0.1c-0.1-0.1-0.3,0.2-0.6,0.1c-0.3-0.1-0.7-0.5-0.5-1.3
					c0-1.1,1.3-4.2,1.8-5.8C13.6,10.3,14.1,11.5,14,11.7z"/>
			</g>
			<g class="st2">
				<path class="st1" d="M24.7,10.3c0.1,0,0.2,0.5,0.2,0.7c0,0.2-0.1,0-0.2,0.2c-0.5,1.1-1.9,4.4-1.7,4.8c0.9-0.9,2.8-3.8,4.9-5.2
					c0.2-0.1,0.4-0.2,0.6-0.2c0.7-0.2,0.9,0.8,0.4,1.9c-0.1,0.1-0.3,0.2-0.2,0.4C28.6,13.6,28,15,28,16c0,0.4,0.2,0.6,0.6,0.4
					c1.5-0.6,3.8-2.7,5-4.1c0.1,0,0.3,0.3,0.2,0.5c-1.4,1.8-3.7,3.8-5.1,4.4c-1.1,0.5-1.8,0.1-1.8-0.7c0-0.3,0.1-0.2,0.1-0.4
					c-0.2-0.8,0.9-2.9,1.1-4.3c0-0.3-0.2-0.2-0.4,0c-2,1.3-3.4,3.8-4.5,5.6c-0.1,0.2-1.1,0.3-1.1-0.1c-0.2-0.1-0.3-0.9-0.2-1.4
					c0.4-1.6,1.2-4,2-5.5C24.1,10.3,24.5,10.3,24.7,10.3z"/>
			</g>
			<g class="st2">
				<path class="st1" d="M38.8,8.5c0.6-1.5,1.1-2.8,1.4-3.5c0.4-0.9,0.7-1.9,1.1-1.9c0.4,0,0.6,0.2,0.6,0.7c0.1,0,0.2,0.1,0,0.8
					c-0.4,0.9-1.3,3-2.6,4.6c-0.4,1.2-1,3.1-1.2,5c-0.3,2.4,0.6,3.2,2,2.5c1.2-0.6,2.5-2.1,2.5-2.2c0.1,0,0.2-0.1,0.3,0
					c0.1,0.1,0.3,0.3,0.2,0.5c-0.5,0.6-1.5,1.6-2.6,2.2c-1.6,0.9-3.2,0.3-3-2.7c0.1-1.2,0.4-2.7,0.9-4.2c-0.5,0.6-1,1.2-1.5,1.8
					c0.2,0.3,0.2,0.6,0.2,0.9c0,0.1,0.1-0.1,0.1,0.2c0,0.8-0.7,1.2-1.1,1c-0.2-0.1-0.2-0.2-0.2-0.5c0.1-0.2,0.2-0.5,0.2-0.7
					c-0.7,0.8-1.4,1.6-2.1,2.3c-0.4,0.7-1,1.2-1.6,1.4c-1.6,0.7-1.8-1-1.3-2.2c1.2-2.6,3-3.6,4-3.6c0.6,0,1.1,0.2,1.5,0.5
					C37.3,10.6,38.1,9.5,38.8,8.5z M35.7,12.5c-0.2-0.3-0.4-0.5-0.8-0.5c-1.3,0-2.8,2-3.2,2.8c-0.8,2,0.2,1.6,1.5,0.2
					C34.2,14.1,35,13.3,35.7,12.5z"/>
			</g>
			<g class="st2">
				<path class="st1" d="M47.9,11.6c0.2-0.4,0.5-0.7,0.7-1.1c0.3-0.2,1,0.2,1.2,0.3s0.1,0.4,0,0.6c-0.2,0.3-0.5,1-0.7,1
					c-0.4,0.8-0.6,1.6-0.7,2.2c-0.2,1.5,0.1,1.9,1.3,1.3c1.3-0.7,3.7-2.5,4.7-3.8c0.5,0,0.5,0.5,0.1,0.8c-1.1,1.1-4,3.5-5.5,4.2
					c-0.6,0.3-1.9,0.3-1.8-1.6c0.1-0.8,0.3-1.6,0.6-2.3c0-0.1,0-0.2-0.1-0.1c-0.1,0.2-1.6,2.4-2.6,3.5c-0.9,1-2.4,0.6-2.3-1.1
					c0.3-2.9,2.1-4.7,3.2-4.7c0.5,0,1.2,0.1,1.6,0.4C47.7,11.3,47.9,11.4,47.9,11.6z M47.6,12.1h-0.1c-0.3,0-0.6-0.6-1.4-0.6
					c-0.2,0-0.6,0.2-0.8,0.4c-0.8,0.8-1.3,2.1-1.4,3.5c-0.1,1,0.1,1,0.5,0.7C45.1,15.6,46.4,13.9,47.6,12.1z"/>
			</g>
			<g class="st2">
				<path class="st1" d="M54.9,9.9c0.2,0,0.6,0.2,0.4,0.5c-0.5,1-1.6,2.7-1.9,4.4c-0.1,0.6,0.1,0.5,0.3,0.3c0.2-0.3,3.2-3.7,3.9-3.7
					c0.7,0,1.2,2.1,1,4.2c0.4-0.3,0.7-0.4,1-0.4c0.5,0,0.8,0.4,0.9,0.8c0.1,0.3-0.1,0.6-0.3,0.7s-0.4-0.1-0.7-0.3
					c-0.3,0-0.6,0.2-1.1,0.5c-0.4,2.2-1.5,5.3-2.5,6.3c-0.3,0.3-0.7-0.2-0.8-0.6c-0.3-1.6,1.1-4.6,2.6-6.2c0.2-1.3,0.1-2.5-0.1-3.5
					c-0.1-0.3-0.2-0.4-0.6-0.2C55,14,54,16.9,53,17c-0.4,0.1-0.8-0.4-0.8-0.8c0-0.1,0.1-0.3,0.1-0.4c0.1-1.7,1-3.7,1.9-5.6
					C54.4,9.9,54.7,9.9,54.9,9.9z M57.5,17.8c-0.8,1-1.6,2.3-1.6,3.8c0,0.3,0.1,0.4,0.2,0.1C56.7,20.5,57.2,19.2,57.5,17.8z"/>
			</g>
			<g class="st2">
				<path class="st1" d="M77.9,14.9c0.7-4,1.5-8.1,2.1-10c0.1-0.4,0-0.6,0.2-1c0.7-1.7,0.8-2.4,1.4-2.4c0.4,0,1.7,0.6,1.7,1.4
					c0,1.5,0.3,4.6,0.1,5.6c-0.2,1.1-0.6,0.6-1,0.5c0.1-2.8,0.1-5.4-0.4-5.7c-0.7,0.5-1.4,1.6-2,4c-0.4,1.7-1,4.6-1.5,7.5
					c2.3-0.1,4.2-0.8,5.6-1.8c0.6-4.5,3.3-8.2,3.8-8.9c1-1.4,2.1-0.6,1.9,0.1c-0.5,2.6-1.7,6.4-4.9,8.9v0.1
					c-0.2,2.5,0.3,3.5,1.4,3.5c1.3,0,2.7-1.2,3.3-1.9c0.2-0.2,0.2,0.2,0.2,0.4c0,0.8-2.4,2.3-3.9,2.3c-1.2,0-2-1.2-2-2.9
					c0-0.3,0-0.5,0-0.8c-1.5,1-3.4,1.6-5.7,1.8c-0.8,4.6-1.6,9-1.8,9.1c-0.5,0.1-0.6,0.3-0.9,0.3c-1.3,0-3.9-3.9-4.1-5.5
					c-0.2-1,0.8-2.5,1.4-2.5c0.3,0,0.5,0.3,0.5,0.3c-0.1,0.2-1,0.8-0.9,1.9c0.2,1.6,1.9,3.9,2.2,4.1c0.6,0.6,1.1,0.9,1.4,0
					c0-0.1-0.1,0,0-0.1c0.4-1.5,0.9-4.4,1.5-7.6c-0.4,0-0.9,0-1.3,0c-0.5,0-0.7-0.3-0.7-0.6c0-0.3,0.1-0.5,0.4-0.4
					C76.7,14.9,77.3,14.9,77.9,14.9z M85.2,12.4c2.1-2,3.2-4.7,3.8-7c0.1-0.4-0.1-0.6-0.2-0.6s-0.6,0.5-1,1.1
					C87.3,6.5,85.7,9.3,85.2,12.4z"/>
			</g>
			<path id="パス_2" class="st1" d="M96.9,12.6c0,0.3-0.6,0.6-1.6,0.5c-0.2,0-2.2,2.2-2.2,3.4c0,1.2,0.5,1.6,1.1,1.6
				c1.6,0,3.1-2.7,3.1-4.8c0-0.7-0.6-1.5-0.6-1.7s0.2-0.3,0.5-0.3c0.9-0.1,1.6,0.6,1.7,1.5c0,0,0,0.1,0,0.1c0,0.3-0.3,0.2-0.3,0.4
				c-0.3,2.1-2.2,5.7-4.7,5.7c-0.9,0-1.8-1.3-1.8-2.3c0-3.2,2.6-5,3.4-5S96.9,12.3,96.9,12.6z"/>
			<g class="st2">
				<path class="st1" d="M102,12.2c-0.1-0.6,0.3-2.1,0.9-2.1c0.1,0,0.5,0.3,0.6,0.8c0.1,0.1,0.2,0.1,0,0.4c-0.1,0.3-0.6,1.1-0.7,1.9
					c0,0.1-0.2,0-0.2,0.1c-0.3,1-0.4,2-0.5,2.9c0,0.3,0.2,0.2,0.3,0.1c0.9-1.1,2-2.8,2.8-4.7c0-0.3,0.2-0.5,0.4-0.5
					c0.2,0,0.5,0.2,0.6,0.5c0.1,0.1,0.3,0.2,0.3,0.3c0,0-0.2,0.3-0.1,0.6c0.1,0.9,0.5,2.8,1.3,3.4c0.2,0.2,0.4,0.3,0.6-0.1
					c0.8-1.7,0.6-3.8,0.6-5.5c0-0.1,0.1-0.3,0.3-0.3c0.2,0,0.6,0.2,0.7,0.6c0,1.6-0.1,4.3-0.9,5.8c-0.3,0.2-0.4,0.6-0.9,0.5
					c-1-0.2-1.9-2-2.2-3.6c-0.1-0.4-0.2-0.3-0.3-0.1c-0.6,1-2,3.3-2.7,4.3c-0.1,0.2-0.4-0.1-0.6-0.1c-0.4,0.3-0.6-0.2-0.7-0.4
					c-0.2-1.1,0.1-3.2,0.6-4.7C102.1,12.4,102,12.4,102,12.2z"/>
			</g>
			<g class="st2">
				<path class="st1" d="M121.5,12.1c-0.9,1.1-3.9,4.1-6.7,4.3c-1.7,0.6-2.1-1.1-2-2c0.1-1.8,1.5-3.7,3.2-4.8c0.3-0.2,0.4,0,0.5,0
					s0.1-0.1,0.3-0.1c0.4,0,1,1,1,1.6c0,0.3-0.1,0.5-0.3,0.7c0,0,0,0.2-0.1,0.4c-0.6,0.8-1.8,1.7-3.5,2.7c0.1,0.9,0.8,0.9,2.2,0.5
					c1.5-0.5,3.6-1.8,5.2-3.6C121.4,11.7,121.7,11.8,121.5,12.1z M113.8,14.1c1.1-0.5,3.2-2.1,3.2-3.2c0-0.2-0.5-0.5-0.7-0.5
					C115.5,10.4,114.1,12.3,113.8,14.1z"/>
			</g>
			<g class="st2">
				<path class="st1" d="M123.3,10.4c0-0.1,0.3-0.3,0.5-0.3c0.2,0,0.8,0.3,0.9,0.5c0.2,0.4-0.6,2.1-1,3.4c-0.1,0.2,0.1,0.2,0.2,0.1
					c0.7-0.8,3.7-3.3,4.6-3.3c0.4,0,1.1,0.8,1.1,1.3c0,0.5-0.5,0.9-0.9,0.8c-0.3-0.1-0.5-0.8-0.7-0.8c-1.2,0.2-3.3,2.1-4.5,3.5
					c-0.2,0.4-0.4,1.4-0.7,1.7c-0.2,0-0.4,0.2-0.6,0.2c-0.1,0-0.6-0.4-0.5-0.7c0.6-1.4,1.7-4.1,1.8-6
					C123.4,10.8,123.3,10.5,123.3,10.4z"/>
			</g>
			<path id="パス_3" class="st1" d="M63,27.2c1.3-0.2,2.5-0.7,3.4-1.6c1-1,1.7-2.2,2-3.6c0.5-1.7,0.8-3.4,0.9-5.1
				c0.2-2,0-3.9-0.4-5.8c-0.2-1.3-0.8-2.6-1.5-3.7c0,0-0.3,0.2-0.3,0.2c0.6,0.9,1.1,1.8,1.3,2.9c0.5,1.7,0.7,3.4,0.7,5.1
				c0,1.8-0.2,3.6-0.6,5.3c-0.2,1.4-0.8,2.7-1.5,3.9c-0.4,0.6-0.9,1.1-1.5,1.5c-0.7,0.4-1.4,0.6-2.2,0.7
				C63.2,27.1,63.1,27.2,63,27.2"/>
			<path id="パス_4" class="st1" d="M68.2,2.4c0-0.5-0.1-1-0.2-1.5c-0.1-0.3-0.3-0.6-0.5-0.8c-0.4-0.2-0.9,0.2-1.1,0.6
				C66,1.5,65.9,2.3,66,3.2c0.1,0.7,0.3,1.5,0.5,2.2c0.1,0.5,0.3,0.9,0.4,1.3c0,0,0.3-0.1,0.3-0.2c0.2-0.5,0.3-1,0.5-1.5
				C68,4.1,68.1,3.3,68.2,2.4c0,0.1-0.3,0.1-0.3,0.2c0,0.9-0.2,1.7-0.5,2.5c-0.1,0.5-0.3,1-0.5,1.5l0.3-0.2
				c-0.3-0.9-0.6-1.9-0.8-2.9c-0.2-0.7-0.2-1.4-0.1-2.1c0.1-0.4,0.2-0.7,0.4-1c0-0.1,0.1-0.1,0.1-0.2c0,0,0,0,0.1-0.1
				c0.1-0.1-0.2,0.1-0.1,0.1c0.1,0,0.2,0,0.3,0c0.3,0.2,0.5,0.5,0.5,0.8c0.2,0.5,0.2,1,0.2,1.5C67.9,2.6,68.2,2.5,68.2,2.4"/>
			<path id="パス_5" class="st1" d="M64.5,3.2c-0.3-0.4-0.7-0.7-1.2-0.9c-0.3-0.2-0.6-0.2-0.9-0.2c-0.2,0.1-0.4,0.2-0.6,0.3
				c-0.1,0.2-0.2,0.5,0,0.8c0.5,1.5,2,2.4,3.3,3.1c0.4,0.2,0.8,0.4,1.2,0.6c0.1-0.1,0.2-0.1,0.3-0.2c-0.2-0.5-0.5-1-0.7-1.4
				C65.5,4.5,65,3.8,64.5,3.2c0,0-0.3,0.2-0.3,0.2c0.6,0.6,1,1.3,1.4,2.1c0.3,0.5,0.5,0.9,0.7,1.4l0.3-0.2c-0.9-0.4-1.8-0.9-2.6-1.5
				c-0.6-0.4-1.1-0.9-1.5-1.5c-0.2-0.3-0.4-0.6-0.4-1c0-0.1,0-0.2,0-0.4c0-0.1,0-0.1,0.1-0.1c0,0,0,0,0-0.1c0.1-0.1,0.1,0.1-0.2,0.1
				c0.1,0,0.1,0,0.2,0c0.1,0,0.1,0,0.2,0c0.2,0,0.4,0.1,0.5,0.2c0.5,0.2,0.9,0.5,1.2,0.9C64.2,3.4,64.5,3.2,64.5,3.2"/>
			<path id="パス_6" class="st1" d="M62.4,6.4c-0.8,0-1.5,0.2-2.2,0.6c-0.2,0.1-0.4,0.3-0.4,0.5c0,0.3,0.2,0.5,0.4,0.6
				c0.7,0.4,1.6,0.5,2.4,0.4C63.3,8.3,64,8.2,64.7,8c0.5-0.1,0.9-0.3,1.4-0.4c0.1,0,0.3-0.2,0.3-0.2c-0.5-0.2-1-0.3-1.5-0.5
				C64.1,6.6,63.2,6.4,62.4,6.4c-0.1,0-0.2,0.2-0.3,0.2c0.8,0,1.7,0.2,2.5,0.5c0.5,0.1,1,0.3,1.5,0.5l0.3-0.2
				c-0.9,0.3-1.9,0.6-2.8,0.8c-0.7,0.2-1.4,0.2-2.1,0.1C61,8.1,60,7.9,60.1,7.3c0-0.1,0.1-0.2,0.2-0.3c0,0,0.1,0,0.1-0.1
				c0.1-0.1,0,0-0.1,0c0.1,0,0.2-0.1,0.3-0.1c0.5-0.2,1-0.2,1.5-0.2C62.2,6.6,62.3,6.4,62.4,6.4"/>
			<path id="パス_7" class="st1" d="M62.8,10.3c-0.3,0.3-0.6,0.7-0.9,1.2c-0.2,0.3-0.2,0.6-0.2,0.9c0.2,0.7,1.1,0.2,1.5,0
				c0.6-0.3,1.2-0.8,1.7-1.4c0.4-0.6,0.8-1.2,1.1-1.8c0.2-0.4,0.4-0.8,0.6-1.2h0c-0.5,0.3-1.1,0.6-1.6,0.9
				C64.2,9.2,63.5,9.7,62.8,10.3c0.1-0.1,0.2-0.1,0.3-0.2c0.7-0.7,1.6-1.2,2.5-1.6c0.1-0.1,0.3-0.2,0.4-0.2c0.1-0.1,0.2-0.1,0.2-0.1
				c0,0,0,0,0,0c0,0.1-0.1,0.2-0.1,0.3c-0.4,0.8-0.8,1.6-1.3,2.3c-0.2,0.4-0.5,0.7-0.8,1c-0.1,0.1-0.3,0.2-0.4,0.3
				c-0.1,0-0.1,0.1-0.2,0.1c0,0-0.1,0.1-0.1,0.1c-0.1,0.1,0.1-0.1,0,0c-0.2,0.1-0.5,0.2-0.7,0.2c-0.5,0-0.6-0.4-0.5-0.8
				c0.2-0.7,0.6-1.2,1.1-1.7C63,10.2,62.9,10.2,62.8,10.3"/>
			<path id="パス_8" class="st1" d="M66,12.4c0,0.5,0.1,1,0.2,1.5c0.1,0.3,0.3,0.6,0.5,0.8c0.4,0.2,0.9-0.2,1.1-0.6
				c0.4-0.8,0.5-1.6,0.4-2.4c-0.1-0.7-0.3-1.5-0.5-2.2c-0.1-0.5-0.3-0.9-0.4-1.4c0,0-0.3,0.1-0.3,0.2c-0.2,0.5-0.3,1-0.5,1.5
				C66.2,10.7,66,11.6,66,12.4c0-0.1,0.3-0.1,0.3-0.2c0-0.9,0.2-1.7,0.5-2.5c0.1-0.5,0.3-1,0.5-1.5l-0.3,0.2
				c0.3,0.9,0.6,1.9,0.8,2.9c0.2,0.7,0.2,1.4,0.1,2.1c-0.1,0.4-0.2,0.7-0.4,1c0,0.1-0.1,0.1-0.1,0.2c0,0,0,0-0.1,0
				c-0.1,0.1,0.2-0.1,0.1-0.1c-0.1,0-0.2,0-0.3,0c-0.3-0.2-0.5-0.5-0.5-0.8c-0.2-0.5-0.2-1-0.2-1.5C66.3,12.3,66,12.4,66,12.4"/>
			<path id="パス_9" class="st1" d="M69.7,11.7c0.3,0.4,0.7,0.7,1.2,0.9c0.3,0.2,0.6,0.2,0.9,0.2c0.2-0.1,0.4-0.2,0.6-0.3
				c0.1-0.2,0.2-0.5,0-0.8c-0.5-1.5-2-2.4-3.3-3.1c-0.4-0.2-0.8-0.4-1.2-0.6c-0.1,0.1-0.2,0.1-0.3,0.2c0.2,0.5,0.5,1,0.7,1.4
				C68.6,10.3,69.1,11,69.7,11.7c0,0,0.3-0.2,0.3-0.2c-0.6-0.6-1-1.3-1.4-2.1c-0.3-0.5-0.5-0.9-0.7-1.4l-0.3,0.2
				c0.9,0.4,1.8,0.9,2.6,1.5c0.6,0.4,1.1,0.9,1.5,1.5c0.2,0.3,0.4,0.6,0.4,1c0,0.1,0,0.2,0,0.4c0,0.1,0,0.1-0.1,0.1c0,0,0,0,0,0.1
				c-0.1,0.1-0.1-0.1,0.2-0.1c-0.1,0-0.1,0-0.2,0c-0.1,0-0.1,0-0.2,0c-0.2,0-0.4-0.1-0.5-0.2c-0.5-0.2-0.9-0.5-1.2-0.9
				C69.9,11.5,69.7,11.7,69.7,11.7"/>
			<path id="パス_10" class="st1" d="M71.7,8.5c0.8,0,1.5-0.2,2.2-0.6c0.2-0.1,0.4-0.3,0.4-0.5c0-0.3-0.2-0.5-0.4-0.6
				c-0.7-0.4-1.6-0.5-2.4-0.4c-0.7,0.1-1.4,0.3-2.1,0.5C69,7,68.5,7.2,68.1,7.3c-0.1,0-0.3,0.2-0.3,0.2c0.5,0.2,1,0.3,1.5,0.5
				C70.1,8.3,70.9,8.4,71.7,8.5c0.1,0,0.2-0.2,0.3-0.2c-0.8,0-1.7-0.2-2.5-0.5c-0.5-0.1-1-0.3-1.5-0.5l-0.3,0.2
				c0.9-0.3,1.9-0.6,2.8-0.8c0.7-0.2,1.4-0.2,2.1-0.1c0.4,0.1,1.4,0.3,1.4,0.9c0,0.1-0.1,0.2-0.2,0.3c0,0-0.1,0-0.1,0.1
				c-0.1,0.1,0,0,0.1,0c-0.1,0-0.2,0.1-0.3,0.1c-0.5,0.2-1,0.2-1.5,0.2C72,8.3,71.9,8.5,71.7,8.5"/>
			<path id="パス_11" class="st1" d="M71.3,4.6c0.3-0.3,0.6-0.7,0.9-1.2c0.2-0.3,0.2-0.6,0.2-0.9c-0.2-0.7-1.1-0.2-1.5,0
				c-0.6,0.3-1.2,0.8-1.7,1.4c-0.4,0.6-0.8,1.2-1.1,1.8c-0.2,0.4-0.4,0.8-0.6,1.2h0c0.5-0.3,1.1-0.6,1.6-0.9
				C69.9,5.7,70.6,5.2,71.3,4.6c-0.1,0.1-0.2,0.1-0.3,0.2c-0.7,0.7-1.6,1.2-2.5,1.6c-0.1,0.1-0.3,0.2-0.4,0.2
				c-0.1,0.1-0.2,0.1-0.2,0.1c0,0,0,0,0,0c0-0.1,0.1-0.2,0.1-0.3c0.4-0.8,0.8-1.6,1.3-2.3c0.2-0.4,0.5-0.7,0.8-1
				c0.1-0.1,0.3-0.2,0.4-0.3c0.1,0,0.1-0.1,0.2-0.1c0,0,0.1-0.1,0.1-0.1c0.1-0.1-0.1,0.1,0,0c0.2-0.1,0.5-0.2,0.7-0.2
				c0.5,0,0.6,0.4,0.5,0.8c-0.2,0.7-0.6,1.2-1.1,1.7C71.1,4.7,71.2,4.6,71.3,4.6"/>
			<path id="パス_12" class="st1" d="M67.5,7.4c0-0.3-0.2-0.5-0.5-0.5c-0.3,0-0.5,0.2-0.5,0.5c0,0.3,0.2,0.5,0.5,0.5
				C67.3,7.9,67.5,7.7,67.5,7.4C67.5,7.4,67.5,7.4,67.5,7.4"/>
			<path id="パス_13" class="st1" d="M67.7,7.3c0-0.2-0.2-0.4-0.4-0.5c-0.1,0-0.2,0-0.3,0C66.9,7,66.8,7,66.7,7.1
				c0,0-0.1,0.1-0.1,0.1c-0.2,0.2-0.2,0.4-0.1,0.6C66.6,8,66.9,8.1,67.1,8c0.1,0,0.2-0.1,0.3-0.2c0.1,0,0.1-0.1,0.2-0.1
				C67.7,7.6,67.7,7.5,67.7,7.3C67.7,7.3,67.6,7.4,67.7,7.3l-0.2,0.1l-0.1,0.1c0,0,0,0,0,0c0,0.1-0.1,0.3-0.2,0.4l0,0
				c-0.1,0.1-0.1,0,0.2-0.1c0,0-0.1,0-0.1,0c-0.2,0-0.4,0-0.5-0.2c-0.1-0.2-0.1-0.4,0-0.5c0,0,0.1-0.1,0.1-0.1c0,0,0,0,0,0l0,0
				c0.1-0.1,0,0-0.2,0.1l0,0c0.1,0,0.2,0,0.3,0c0.2,0.1,0.4,0.2,0.4,0.5c0,0,0.1,0,0,0l0.1-0.1L67.7,7.3C67.7,7.4,67.7,7.3,67.7,7.3
				"/>
		</g>
	</g>
</g>
</svg>
