<?xml version="1.0" encoding="UTF-8"?>
<svg id="_レイヤー_2" data-name="レイヤー 2" xmlns="http://www.w3.org/2000/svg" xmlns:xlink="http://www.w3.org/1999/xlink" viewBox="0 0 1366 768">
  <defs>
    <style>
      .cls-1, .cls-2, .cls-3, .cls-4, .cls-5, .cls-6, .cls-7 {
        stroke-miterlimit: 10;
      }

      .cls-1, .cls-2, .cls-4, .cls-5, .cls-6, .cls-8, .cls-7 {
        fill: none;
      }

      .cls-1, .cls-3 {
        stroke: #999;
      }

      .cls-2 {
        stroke-dasharray: 0 0 19.8 24.74;
        stroke-width: 7px;
      }

      .cls-2, .cls-7 {
        stroke: #666;
      }

      .cls-9, .cls-10 {
        fill: #fff;
      }

      .cls-9, .cls-11, .cls-12, .cls-13, .cls-14 {
        font-family: KozGoPr6N-Regular-90ms-RKSJ-H, 'Kozuka Gothic Pr6N';
      }

      .cls-9, .cls-13 {
        font-size: 16px;
      }

      .cls-3, .cls-15 {
        fill: #999;
      }

      .cls-16 {
        fill: #4d4d4d;
      }

      .cls-17 {
        letter-spacing: .25em;
      }

      .cls-4 {
        stroke-width: 5px;
      }

      .cls-4, .cls-5, .cls-6 {
        stroke: #fff;
      }

      .cls-5 {
        stroke-width: 20px;
      }

      .cls-6 {
        stroke-width: 10px;
      }

      .cls-18 {
        fill: #bdccd4;
      }

      .cls-11 {
        font-size: 18px;
      }

      .cls-11, .cls-12, .cls-13, .cls-14, .cls-19 {
        fill: #666;
      }

      .cls-12 {
        font-size: 10px;
      }

      .cls-20 {
        clip-path: url(#clippath);
      }

      .cls-14 {
        font-size: 12px;
      }

      .cls-7 {
        stroke-width: 8px;
      }
    </style>
    <clipPath id="clippath">
      <rect class="cls-8" width="1366" height="768"/>
    </clipPath>
  </defs>
  <g id="_レイヤー_1-2" data-name="レイヤー 1">
    <rect class="cls-18" width="1366" height="768"/>
    <g class="cls-20">
      <polyline class="cls-5" points="346.13 0 293 327 282 546 282 630.79 337 718 346.13 924.91"/>
      <text class="cls-11" transform="translate(284.78 374.13) rotate(92.88)"><tspan x="0" y="0">浜</tspan></text>
      <text class="cls-11" transform="translate(283.88 392.11) rotate(92.88)"><tspan x="0" y="0">田</tspan></text>
      <text class="cls-11" transform="translate(282.98 410.09) rotate(92.88)"><tspan x="0" y="0">南</tspan></text>
      <text class="cls-11" transform="translate(282.07 428.06) rotate(92.88)"><tspan x="0" y="0">通</tspan></text>
      <text class="cls-11" transform="translate(281.17 446.06) rotate(92.88)"><tspan x="0" y="0">り</tspan></text>
      <polyline class="cls-5" points="0 559.55 282 614.7 676.5 639.98 1110 606 1511 440"/>
      <text class="cls-11" transform="translate(776.44 638.38) rotate(-4.48)"><tspan x="0" y="0">田</tspan></text>
      <text class="cls-11" transform="translate(794.38 636.97) rotate(-4.48)"><tspan x="0" y="0">中</tspan></text>
      <text class="cls-11" transform="translate(812.33 635.57) rotate(-4.48)"><tspan x="0" y="0">通</tspan></text>
      <text class="cls-11" transform="translate(830.28 634.16) rotate(-4.48)"><tspan x="0" y="0">り</tspan></text>
      <polyline class="cls-5" points="867.74 0 888.43 257 955 431 1353 851"/>
      <polyline class="cls-5" points="-31 15 392 132 1001.02 132 1439.76 15"/>
      <text class="cls-11" transform="translate(515.79 138)"><tspan x="0" y="0">山</tspan><tspan x="18" y="0">下</tspan><tspan x="36" y="0">街</tspan><tspan x="54" y="0">道</tspan></text>
      <polyline class="cls-6" points="337 718 468.85 626.67 743 488 902.22 293.05"/>
      <polyline class="cls-6" points="1057 261 1184 317 1261 456 1352.72 505.52"/>
      <polyline class="cls-6" points="292.57 335.53 554.09 383.26 683 518.35"/>
      <line class="cls-6" x1="1057" y1="261" x2="883.52" y2="196.08"/>
      <g>
        <polyline class="cls-7" points="-62.5 168.5 493.5 299.5 1057 261 1573 52"/>
        <polyline class="cls-4" points="-62.5 168.5 493.5 299.5 1057 261 1573 52"/>
        <polyline class="cls-2" points="-28.68 176.47 493.5 299.5 1057 261 1552.26 60.4"/>
      </g>
      <rect class="cls-8" width="1366" height="768"/>
      <rect class="cls-19" x="758" y="265" width="117" height="27" transform="translate(-16.36 53.59) rotate(-3.72)"/>
      <text class="cls-9" transform="translate(800.78 283.88) rotate(-3.72)"><tspan x="0" y="0">曙橋</tspan></text>
      <polyline class="cls-19" points="655 467 716 436 738 469 734 478 687 502"/>
      <g>
        <path class="cls-16" d="m616.07,398.65c0,1.42-1.24,3.66-1.72,3.66-.94,0-1.69-.45-1.72-.73-.06-.42.67-.67.79-.88.42-.79.97-2.09.97-3.08s-.79-2-1.12-2.21c-.33-.21-.48,0-.64-.06-.15-.06,0-.36-.24-.36-4.48,0-9.01,5.87-9.01,8.38,0,3.33,2.24,5.14,4.63,6.77l2,1.36c4.14-2.24,8.77-4.17,11.37-4.17.42,0,.7.18.7.67s-.21.82-.54.88c-.33.06-3.45.06-4.14.15-1.06.15-3.78,1.45-6.56,3.08,1.09.88,1.69,1.72,1.69,3.05s-3.84,3.57-4.08,3.63c-.24.06-.21-.18-.33-.09-.12.09,0,0-.27.24-.27.24-1.88.91-2.81.91s-3.36-1.09-3.36-1.91c0-1.09,3.21-3.51,7.17-5.78-2.66-1.88-6.68-4.32-6.68-8.44,0-.15.09-.09.09-.24s0,.12-.03-.27c-.21-4.48,6.47-9.25,9.22-9.25,2.54,0,4.66,2.36,4.66,4.69Zm-6.38,14.15c-3.24,2-6.2,4.23-6.2,5.2,0,.64.7.85,1.33.85,1.27,0,6.32-2.42,6.32-4.26,0-.54-.57-1.15-1.45-1.78Z"/>
        <path class="cls-16" d="m620.76,408.78c-.21.67-1.12,1.66-1.36,1.91-.7.91-1.54,3.81-1.63,5.29-.03.54.24.58,1,.27,1.48-.57,4.63-3.39,5.66-5.66-.06-.3.12-.79.45-.85.21-.03.67,0,1.03.09.21.06.57.94.48,1.51-.03.12-.33.18-.48.3-.18.94-.73,4.84,0,5.17,1.18.54,7.5-4.39,9.07-6.35.3.06.3.42,0,.79-2.81,3.42-7.89,6.96-9.13,6.87-.21-.15-.36-.03-.54-.15-1.84-1.06-1.54-3.66-1.12-5.11.06-.21,0-.27-.15-.06-1.48,1.94-3.93,4.63-5.05,5.17-.7.33-.97.36-1.18.21s-.48.39-1.03.21c-.54-.18-1.09-.85-.76-2.12,0-1.69,2.09-6.74,2.81-9.16,1.27-.7,2.09,1.21,1.94,1.66Z"/>
        <path class="cls-16" d="m636.7,406.48c.15.03.33.79.27,1.06s-.09,0-.33.27c-.76,1.75-3.02,7.05-2.63,7.68,1.36-1.42,4.45-6.11,7.8-8.32.27-.18.57-.24,1.03-.33,1.15-.24,1.48,1.27.7,3.08-.09.21-.45.3-.33.57-.27,1.24-1.24,3.39-1.18,4.99.03.7.27.97.91.7,2.33-1.03,5.99-4.35,7.95-6.56.18.06.48.51.27.76-2.3,2.81-5.96,6.05-8.1,7.08-1.79.85-2.84.12-2.9-1.12-.03-.42.21-.27.18-.57-.33-1.27,1.39-4.57,1.79-6.87.06-.42-.24-.3-.67-.03-3.17,2-5.41,6.02-7.17,8.86-.18.3-1.69.48-1.79-.21-.36-.18-.45-1.39-.27-2.21.57-2.54,1.94-6.41,3.21-8.77.33-.09,1.03-.09,1.27-.06Z"/>
        <path class="cls-16" d="m658.89,403.67c.91-2.42,1.78-4.51,2.18-5.53.67-1.42,1.18-3.05,1.75-3.05.67,0,.91.39.88,1.06.15,0,.39.21,0,1.24-.58,1.48-2.03,4.72-4.14,7.29-.67,1.97-1.57,4.9-1.91,7.98-.42,3.81.94,5.05,3.21,3.99,1.97-.91,3.9-3.3,3.9-3.45.12-.06.3-.09.42-.03.21.09.51.51.24.85-.76.88-2.45,2.54-4.2,3.57-2.57,1.51-5.05.51-4.84-4.23.09-1.84.7-4.26,1.45-6.62-.76,1-1.54,1.97-2.36,2.93.24.48.3.97.24,1.39-.03.21.18-.15.21.36.06,1.21-1.12,1.88-1.72,1.63-.3-.12-.36-.39-.39-.73.15-.36.27-.76.3-1.12-1.12,1.3-2.27,2.54-3.36,3.66-.57,1.12-1.54,1.88-2.51,2.3-2.48,1.06-2.84-1.66-2.03-3.51,1.88-4.17,4.75-5.66,6.29-5.66,1.03,0,1.81.36,2.36.85,1.63-1.91,2.99-3.66,4.02-5.17Zm-4.93,6.23c-.24-.48-.67-.79-1.24-.79-2.09,0-4.42,3.24-5.02,4.51-1.33,3.12.27,2.48,2.45.3,1.36-1.36,2.66-2.72,3.81-4.02Z"/>
        <path class="cls-16" d="m671.68,408.51c.36-.6.73-1.18,1.06-1.78.54-.39,1.63.24,1.84.45.21.21.18.64.03.94-.27.54-.82,1.54-1.15,1.63-.61,1.3-.97,2.57-1.12,3.51-.39,2.39.15,2.96,2,2,2.03-1.06,5.87-3.99,7.53-6.05.79.03.79.73.15,1.33-1.81,1.75-6.38,5.59-8.71,6.62-1.03.45-3.08.51-2.87-2.48.09-1.21.54-2.54.88-3.69.06-.21-.06-.27-.15-.09-.15.27-2.57,3.87-4.14,5.59-1.48,1.63-3.87,1-3.6-1.81.45-4.66,3.33-7.5,5.02-7.5.82,0,1.84.21,2.51.58.39.24.67.48.73.76Zm-.54.88h-.18c-.48,0-.94-.88-2.3-.88-.36,0-.91.24-1.27.6-1.24,1.24-2.09,3.3-2.3,5.5-.15,1.57.21,1.66.85,1.18,1.21-.91,3.36-3.57,5.2-6.41Z"/>
        <path class="cls-16" d="m682.12,406.96c.33.06.97.36.67.91-.88,1.66-2.72,4.54-3.21,7.32-.18,1,.21.79.54.42.33-.42,5.41-6.29,6.56-6.29,1.24,0,1.97,3.45,1.69,6.99.61-.42,1.21-.67,1.75-.7.76,0,1.39.6,1.48,1.39.09.54-.21,1.03-.57,1.15-.36.12-.61-.15-1.18-.48-.45.03-1.09.36-1.78.91-.73,3.69-2.54,8.95-4.2,10.52-.51.51-1.21-.27-1.36-1.06-.57-2.75,1.82-7.74,4.42-10.49.27-2.12.24-4.17-.12-5.9-.12-.51-.39-.73-1-.3-3.42,2.39-5.17,7.23-6.87,7.44-.67.09-1.33-.63-1.3-1.42,0-.21.15-.45.18-.7.24-2.81,1.72-6.29,3.27-9.44.15-.3.7-.33,1.03-.27Zm4.35,13.16c-1.39,1.63-2.66,3.93-2.72,6.35-.03.57.12.67.39.15,1.03-1.94,1.81-4.2,2.33-6.5Z"/>
        <path class="cls-16" d="m716.8,413.83c1.18-6.38,2.42-12.97,3.42-15.91.21-.63.06-1.03.3-1.6,1.12-2.66,1.24-3.81,2.21-3.81.67,0,2.69,1,2.66,2.27-.06,2.45.54,7.32.21,8.98-.33,1.72-1,.97-1.54.85.15-4.38.09-8.56-.57-9.01-1.06.82-2.3,2.6-3.18,6.29-.67,2.72-1.51,7.29-2.36,11.92,3.72-.15,6.62-1.21,8.95-2.81.88-7.23,5.32-13.1,6.08-14.09,1.63-2.18,3.33-.97,3.08.18-.85,4.14-2.78,10.16-7.8,14.12v.12c-.27,3.93.51,5.5,2.27,5.5,2.06,0,4.26-1.91,5.2-3.05.24-.27.39.33.39.63,0,1.24-3.84,3.72-6.26,3.72-1.91,0-3.12-1.94-3.12-4.63,0-.42,0-.85.03-1.24-2.36,1.51-5.35,2.6-9.07,2.93-1.3,7.29-2.54,14.37-2.93,14.55-.73.12-.91.54-1.39.54-2.15,0-6.23-6.14-6.59-8.74-.33-1.6,1.24-3.9,2.27-4.05.42-.06.85.48.82.54-.09.36-1.63,1.21-1.36,2.99.39,2.48,2.99,6.14,3.48,6.59,1,.91,1.72,1.39,2.21-.06.06-.18-.09-.03-.06-.18.64-2.33,1.48-7.08,2.42-12.1-.7.03-1.42.06-2.15.03-.79,0-1.15-.54-1.15-1s.21-.76.64-.7c1.03.12,2,.18,2.9.21Zm11.64-4.05c3.42-3.12,5.17-7.44,6.08-11.19.15-.67-.12-.94-.33-.94s-.97.76-1.66,1.81c-.63.97-3.3,5.41-4.08,10.31Z"/>
        <path class="cls-16" d="m744.44,408.78c0,.51-.85.97-2.45.82-.3,0-3.3,3.3-3.3,5.02s.79,2.42,1.57,2.42c2.36,0,4.66-3.99,4.66-7.14,0-1.09-.94-2.27-.94-2.6s.33-.51.79-.51c1.78,0,2.57,1.27,2.57,2.42,0,.48-.48.27-.51.54-.42,3.18-3.36,8.47-7.05,8.47-1.39,0-2.72-1.91-2.72-3.39,0-4.78,3.84-7.44,5.05-7.44s2.33.88,2.33,1.39Z"/>
        <path class="cls-16" d="m752.27,409.5c-.09-.91.45-3.42,1.48-3.42.18,0,.73.45,1.03,1.33.18.09.27.15.06.67-.21.51-1,1.75-1.06,3.05,0,.21-.24-.06-.27.18-.48,1.6-.7,3.12-.79,4.69-.03.45.24.3.42.09,1.39-1.69,3.24-4.48,4.48-7.41-.06-.54.27-.76.58-.76s.85.33.91.76c.18.12.48.36.45.42-.03.06-.27.48-.21.91.18,1.45.79,4.38,2,5.44.39.36.63.54.97-.12,1.33-2.69,1.03-6.02.91-8.68.03-.21.18-.45.45-.45s1.03.24,1.06.94c.06,2.48-.15,6.77-1.45,9.25-.51.3-.61.94-1.36.76-1.6-.39-3.02-3.21-3.57-5.72-.12-.6-.33-.45-.54-.12-1,1.57-3.14,5.29-4.23,6.9-.18.27-.64-.18-.91-.12-.7.45-1.03-.27-1.09-.67-.3-1.69.15-5.05,1.03-7.41-.12-.18-.3-.21-.33-.51Z"/>
        <path class="cls-16" d="m782.84,410.53c-1.57,1.88-6.5,6.8-11.25,7.17-2.84.97-3.48-1.91-3.36-3.39.24-3.02,2.6-6.17,5.41-7.98.48-.3.67-.06.82.03s.24-.18.48-.18c.6,0,1.6,1.69,1.66,2.72.03.54-.21.91-.48,1.15-.06.06.03.36-.18.6-1.06,1.3-2.99,2.93-5.93,4.54.18,1.57,1.36,1.54,3.72.76,2.6-.85,5.99-2.99,8.68-5.99.24-.03.88.03.42.57Zm-12.82,3.39c1.91-.91,5.32-3.45,5.38-5.32,0-.3-.88-.82-1.12-.82-1.39,0-3.87,3.05-4.26,6.14Z"/>
        <path class="cls-16" d="m784.14,406.63c0-.21.48-.45.79-.45s1.24.48,1.39.82c.3.67-.97,3.36-1.57,5.35-.09.3.09.33.24.12,1.09-1.3,5.87-5.29,7.32-5.29.57,0,1.69,1.21,1.69,2.09s-.73,1.36-1.39,1.24c-.48-.09-.73-1.24-1.12-1.3-1.84.24-5.26,3.33-7.2,5.54-.3.57-.7,2.18-1.09,2.75-.39-.06-.7.36-.88.33-.18-.03-.91-.61-.73-1.06.97-2.27,2.63-6.47,2.81-9.5-.15-.03-.27-.42-.27-.63Z"/>
      </g>
      <g>
        <path class="cls-16" d="m693.68,430.64c1.74-.26,3.41-.96,4.78-2.07,1.66-1.35,2.66-3.3,3.3-5.3.79-2.45,1.13-5.05,1.35-7.61.26-2.98.12-6.02-.55-8.94-.44-1.94-1.09-4.05-2.33-5.65-.02-.02-.47.29-.48.28.95,1.23,1.52,2.77,1.96,4.25.73,2.46,1.04,5.03,1.04,7.59s-.3,5.27-.82,7.83c-.41,2.04-1.03,4.11-2.19,5.87-.57.87-1.29,1.65-2.13,2.25-1,.71-2.25,1.05-3.45,1.23-.17.03-.31.25-.48.28h0Z"/>
        <path class="cls-16" d="m701.47,393.56c0-.76-.09-1.52-.33-2.24-.14-.42-.36-.96-.78-1.19-.53-.28-1.29.32-1.57.76-.65,1.04-.74,2.51-.6,3.7.13,1.09.42,2.16.72,3.21.2.7.41,1.39.65,2.07-.01-.04.46-.22.48-.28.26-.76.5-1.52.71-2.29.34-1.21.7-2.48.71-3.75,0,.09-.48.18-.48.28-.01,1.26-.37,2.54-.71,3.75-.22.77-.45,1.54-.71,2.29l.48-.28c-.48-1.39-.9-2.81-1.19-4.25-.21-1.04-.3-2.06-.12-3.12.09-.56.24-1.14.54-1.62.05-.08.12-.16.17-.24.21-.29-.04.07-.09-.01-.02-.03.41,0,.45.01.44.18.68.74.83,1.16.26.74.34,1.53.35,2.3,0-.09.48-.18.48-.28Z"/>
        <path class="cls-16" d="m695.93,394.69c-.53-.52-1.11-1.01-1.78-1.34-.4-.2-.91-.41-1.36-.3-.27.07-.65.27-.83.49-.27.32-.16.82-.05,1.17.73,2.23,3,3.52,4.93,4.59.6.33,1.21.65,1.82.95.04.02.47-.29.48-.28-.34-.72-.71-1.43-1.1-2.13-.6-1.09-1.23-2.26-2.11-3.16-.03-.04-.45.31-.48.28.88.9,1.51,2.06,2.11,3.16.38.7.75,1.41,1.1,2.13l.48-.28c-1.33-.65-2.64-1.36-3.87-2.19-.91-.61-1.69-1.31-2.3-2.22-.29-.44-.57-.94-.66-1.47-.03-.18-.05-.36,0-.54.02-.08.04-.15.08-.22.02-.03.04-.05.06-.08.11-.19.22.11-.23.1.08,0,.19-.05.28-.06.11,0,.22,0,.33.02.27.04.53.14.78.26.7.33,1.32.84,1.86,1.38.04.04.45-.31.48-.28Z"/>
        <path class="cls-16" d="m692.81,399.45c-1.16.01-2.22.24-3.22.83-.29.17-.61.38-.71.72-.11.4.19.73.5.94.99.66,2.43.77,3.58.64,1.09-.12,2.17-.42,3.22-.73.7-.21,1.41-.43,2.1-.67.09-.03.4-.3.48-.28-.75-.27-1.5-.5-2.26-.72-1.19-.34-2.45-.71-3.7-.72-.16,0-.32.28-.48.28,1.25.01,2.51.38,3.7.72.76.22,1.52.46,2.26.72l.48-.28c-1.38.49-2.81.92-4.25,1.22-1.02.21-2.03.29-3.06.11-.64-.11-2.17-.45-2.12-1.36.02-.45.43-.68.77-.8.71-.25,1.47-.33,2.22-.33.16,0,.32-.27.48-.28Z"/>
        <path class="cls-16" d="m693.45,405.34c-.51.53-.98,1.11-1.31,1.77-.2.41-.42.93-.32,1.4.23,1.03,1.64.35,2.18.04.96-.55,1.83-1.22,2.49-2.11s1.19-1.82,1.7-2.77c.33-.61.65-1.22.94-1.85h0c-.81.4-1.61.83-2.39,1.28-1.14.65-2.36,1.31-3.3,2.25.13-.12.35-.15.48-.28,1.03-1.03,2.39-1.75,3.67-2.42.22-.12.44-.23.66-.34.1-.05.26-.18.37-.19.07,0,.04-.04,0,.06-.05.14-.14.28-.2.41-.59,1.18-1.21,2.35-1.93,3.45-.37.56-.77,1.11-1.26,1.57-.19.18-.38.34-.59.5-.09.07-.18.14-.27.2-.07.05-.15.09-.21.14-.15.11.18-.08.03-.01-.35.16-.7.33-1.1.34-.69.02-.9-.55-.77-1.15.21-.98.92-1.85,1.6-2.55-.12.13-.35.15-.48.28Z"/>
        <path class="cls-16" d="m698.15,408.5c0,.76.09,1.52.33,2.24.14.42.36.96.78,1.19.53.28,1.29-.32,1.57-.76.65-1.04.74-2.51.6-3.7-.13-1.09-.42-2.16-.72-3.21-.2-.7-.41-1.39-.65-2.07.01.04-.46.22-.48.28-.26.76-.5,1.52-.71,2.29-.34,1.21-.7,2.48-.71,3.75,0-.09.48-.18.48-.28.01-1.26.37-2.54.71-3.75.22-.77.45-1.54.71-2.29l-.48.28c.48,1.39.9,2.81,1.19,4.25.21,1.04.3,2.06.12,3.12-.09.56-.24,1.14-.54,1.62-.05.08-.12.16-.17.24-.21.29.04-.07.09.01.02.03-.41,0-.45-.01-.44-.18-.68-.74-.83-1.16-.26-.74-.34-1.53-.35-2.3,0,.09-.48.18-.48.28Z"/>
        <path class="cls-16" d="m703.69,407.37c.53.52,1.11,1.01,1.78,1.34.4.2.91.41,1.36.3.27-.07.65-.27.83-.49.27-.32.16-.82.05-1.17-.73-2.23-3-3.52-4.93-4.59-.6-.33-1.21-.65-1.82-.95-.04-.02-.47.29-.48.28.34.72.71,1.43,1.1,2.13.6,1.09,1.23,2.26,2.11,3.16.03.04.45-.31.48-.28-.88-.9-1.51-2.06-2.11-3.16-.38-.7-.75-1.41-1.1-2.13l-.48.28c1.33.65,2.64,1.36,3.87,2.19.91.61,1.69,1.31,2.3,2.22.29.44.57.94.66,1.47.03.18.05.36,0,.54-.02.08-.04.15-.08.22-.02.03-.04.05-.06.08-.11.19-.22-.11.23-.1-.08,0-.19.05-.28.06-.11,0-.22,0-.33-.02-.27-.04-.53-.14-.78-.26-.7-.33-1.32-.84-1.86-1.38-.04-.04-.45.31-.48.28Z"/>
        <path class="cls-16" d="m706.81,402.6c1.16-.01,2.22-.24,3.22-.83.29-.17.61-.38.71-.72.11-.4-.19-.73-.5-.94-.99-.66-2.43-.77-3.58-.64-1.09.12-2.17.42-3.22.73-.7.21-1.41.43-2.1.67-.09.03-.4.3-.48.28.75.27,1.5.5,2.26.72,1.19.34,2.45.71,3.7.72.16,0,.32-.28.48-.28-1.25-.01-2.51-.38-3.7-.72-.76-.22-1.52-.46-2.26-.72l-.48.28c1.38-.49,2.81-.92,4.25-1.22,1.02-.21,2.03-.29,3.06-.11.64.11,2.17.45,2.12,1.36-.02.45-.43.68-.77.8-.71.25-1.47.33-2.22.33-.16,0-.32.27-.48.28Z"/>
        <path class="cls-16" d="m706.17,396.72c.51-.53.98-1.11,1.31-1.77.2-.41.42-.93.32-1.4-.23-1.03-1.64-.35-2.18-.04-.96.55-1.83,1.22-2.49,2.11s-1.19,1.82-1.7,2.77c-.33.61-.65,1.22-.94,1.85h0c.81-.4,1.61-.83,2.39-1.28,1.14-.65,2.36-1.31,3.3-2.25-.13.12-.35.15-.48.28-1.03,1.03-2.39,1.75-3.67,2.42-.22.12-.44.23-.66.34-.1.05-.26.18-.37.19-.07,0-.04.04,0-.06.05-.14.14-.28.2-.41.59-1.18,1.21-2.35,1.93-3.45.37-.56.77-1.11,1.26-1.57.19-.18.38-.34.59-.5.09-.07.18-.14.27-.2.07-.05.15-.09.21-.14.15-.11-.18.08-.03.01.35-.16.7-.33,1.1-.34.69-.02.9.55.77,1.15-.21.98-.92,1.85-1.6,2.55.12-.13.35-.15.48-.28Z"/>
        <g>
          <path class="cls-10" d="m700.52,401.03c0-.4-.32-.72-.71-.72s-.71.32-.71.72.32.72.71.72.71-.32.71-.72Z"/>
          <path class="cls-16" d="m700.76,400.89c0-.33-.23-.63-.55-.7-.16-.04-.33-.02-.47.05-.17.08-.33.18-.49.28-.07.04-.14.09-.2.15-.23.24-.26.62-.08.9s.54.39.85.27c.17-.06.32-.17.47-.26.09-.05.19-.11.26-.19.13-.14.2-.32.2-.5,0,0-.08.04-.07.04-.06.03-.11.06-.17.1s-.11.07-.17.1c0,0-.07.03-.07.04,0,.14-.04.28-.12.4-.04.06-.08.11-.14.15-.01.01-.02.02-.04.03-.14.1-.21.04.37-.21-.04.02-.07.03-.11.04-.28.08-.58-.02-.75-.25s-.2-.55-.06-.8c.03-.06.08-.12.12-.16.02-.02.05-.04.07-.06h.02c.15-.11.02-.04-.37.2.02,0,.04-.02.06-.03.13-.05.28-.06.42-.02.32.08.54.38.54.7,0,0,.08-.04.07-.04.06-.03.11-.06.17-.1s.11-.07.17-.1c0,0,.07-.03.07-.04Z"/>
        </g>
      </g>
      <polyline class="cls-15" points="220.83 346 270.83 351.19 265.83 469 223 469"/>
      <text class="cls-11" transform="translate(182.66 321.83)"><tspan x="0" y="0">浜田ビル</tspan></text>
      <polygon class="cls-15" points="767 149 861.74 149 867.74 207.98 767 207.98 767 149"/>
      <text class="cls-11" transform="translate(662.4 178.53)"><tspan x="0" y="0">山下ストア</tspan></text>
      <polyline class="cls-15" points="634.5 558.5 675.5 536.5 686.21 558.5 643.5 580.5"/>
      <polyline class="cls-15" points="264.13 113.16 308.63 126.73 300.59 149.84 254.87 135.06"/>
      <polyline class="cls-15" points="904.35 407.18 887.27 363.9 910.36 355.82 927.25 400.8"/>
      <text class="cls-11" transform="translate(660.53 588.83)"><tspan x="0" y="0">F</tspan><tspan class="cls-17" x="9.34" y="0">M</tspan><tspan x="29.47" y="0">マート</tspan></text>
      <text class="cls-14" transform="translate(220.53 158.83)"><tspan x="0" y="0">F</tspan><tspan class="cls-17" x="6.23" y="0">M</tspan><tspan x="19.64" y="0">マート</tspan></text>
      <text class="cls-11" transform="translate(852.53 429.83)"><tspan x="0" y="0">F</tspan><tspan class="cls-17" x="9.34" y="0">M</tspan><tspan x="29.47" y="0">マート</tspan></text>
      <rect class="cls-15" x="892" y="86" width="63" height="20" rx="10" ry="10"/>
      <circle class="cls-10" cx="903" cy="96" r="8"/>
      <circle class="cls-10" cx="944" cy="96" r="8"/>
      <circle class="cls-10" cx="923" cy="96" r="8"/>
      <rect class="cls-15" x="346" y="85" width="63" height="20" rx="10" ry="10"/>
      <circle class="cls-10" cx="357" cy="95" r="8"/>
      <circle class="cls-10" cx="398" cy="95" r="8"/>
      <circle class="cls-10" cx="377" cy="95" r="8"/>
      <rect class="cls-15" x="204" y="565" width="63" height="20" rx="10" ry="10"/>
      <circle class="cls-10" cx="215" cy="575" r="8"/>
      <circle class="cls-10" cx="256" cy="575" r="8"/>
      <circle class="cls-10" cx="235" cy="575" r="8"/>
      <rect class="cls-15" x="1100" y="551" width="63" height="20" rx="10" ry="10"/>
      <circle class="cls-10" cx="1111" cy="561" r="8"/>
      <circle class="cls-10" cx="1152" cy="561" r="8"/>
      <circle class="cls-10" cx="1131" cy="561" r="8"/>
      <rect class="cls-15" x="620" y="657" width="7" height="18" rx="3.5" ry="3.5"/>
      <line class="cls-1" x1="623.5" y1="679" x2="623.5" y2="669"/>
      <line class="cls-3" x1="621" y1="679" x2="626" y2="679"/>
      <text class="cls-12" transform="translate(631.49 680.38)"><tspan x="0" y="0">バス停</tspan></text>
      <rect class="cls-15" x="318" y="303" width="7" height="18" rx="3.5" ry="3.5"/>
      <line class="cls-1" x1="321.5" y1="325" x2="321.5" y2="315"/>
      <line class="cls-3" x1="319" y1="325" x2="324" y2="325"/>
      <text class="cls-12" transform="translate(329.49 326.38)"><tspan x="0" y="0">バス停</tspan></text>
      <rect class="cls-15" x="927" y="288" width="7" height="18" rx="3.5" ry="3.5"/>
      <line class="cls-1" x1="930.5" y1="310" x2="930.5" y2="300"/>
      <line class="cls-3" x1="928" y1="310" x2="933" y2="310"/>
      <text class="cls-12" transform="translate(938.49 311.38)"><tspan x="0" y="0">バス停</tspan></text>
      <polyline class="cls-15" points="472 606 540 571 540 554.7 431.4 554.7 431 604"/>
      <text class="cls-14" transform="translate(474.07 545.63)"><tspan x="0" y="0">松田ビル</tspan></text>
      <polyline class="cls-15" points="1036 634 1113 630 1156 675 1048 685"/>
      <text class="cls-14" transform="translate(1081.28 698.36)"><tspan x="0" y="0">羽黒ビル</tspan></text>
      <polygon class="cls-15" points="273.83 647.83 122 615 122 734 273.83 734 273.83 647.83"/>
      <text class="cls-13" transform="translate(226.79 750.32)"><tspan x="0" y="0">尼ケ崎大学</tspan></text>
      <text class="cls-13" transform="translate(912.06 334.9) rotate(69.06)"><tspan x="0" y="0">中</tspan></text>
      <text class="cls-13" transform="translate(917.78 349.85) rotate(69.06)"><tspan x="0" y="0">上</tspan></text>
      <text class="cls-13" transform="translate(923.5 364.8) rotate(69.06)"><tspan x="0" y="0">通</tspan></text>
      <text class="cls-13" transform="translate(929.21 379.72) rotate(69.06)"><tspan x="0" y="0">り</tspan></text>
    </g>
  </g>
</svg>